<?xml version="1.0" encoding="utf-8"?>
<!-- Generator: Adobe Illustrator 22.0.1, SVG Export Plug-In . SVG Version: 6.00 Build 0)  -->
<svg version="1.1" id="logo" xmlns="http://www.w3.org/2000/svg" xmlns:xlink="http://www.w3.org/1999/xlink" x="0px" y="0px"
	 viewBox="0 0 2480 3508" style="enable-background:new 0 0 2480 3508;" xml:space="preserve">
<style type="text/css">
	.st0{display:none;}
	.st1{display:inline;fill:#E5881F;}
	.st2{fill:#E5881F;}
</style>
<g id="C" class="st0">
	<path id="矩形_1" class="st1" d="M961.7,830c313.5,0,567.7,254.5,567.7,568.5S1275.2,1967,961.7,1967S394,1712.5,394,1398.5
		S648.2,830,961.7,830z M1220.6,1065.1c0,0,171,111.9,202.1,177.2c19.4,40.7,88.1,23.7,75.5-24.2
		c-22.9-86.8,277.8-297.3,277.8-297.3l204,834.9c0,0-539.6,6.1-494.9-133.5c15.7-49.2-45.2-75.2-72.1-35.3
		c-51.7,76.7-144.7,43.3-144.7,43.3L1220.6,1065.1z M1018.7,964.8c240.7,0,435.8,195.4,435.8,436.3s-195.1,436.3-435.8,436.3
		S583,1642.1,583,1401.2S778.1,964.8,1018.7,964.8z"/>
</g>
<path class="st2" d="M1427.5,1535.9c-0.2,0.5-0.4,1.1-0.5,1.6c-0.2,0.7-0.5,1.4-0.7,2.1l0,0c-68.1,192.8-266.1,315.5-475.2,282.1
	c-235.5-37.6-395.9-259-358.3-494.5c37.6-235.5,259-395.9,494.5-358.3c165.9,26.5,294.6,144.3,343,293.9l0,0
	c0.2,0.9,0.5,1.7,0.8,2.6c0,0.1,0.1,0.3,0.1,0.4c18.3,57,89,40,85.5-7.3c-23.1-100.4-73.7-195.8-152-274
	c-221.9-221.9-581.8-221.9-803.7,0s-221.9,581.8,0,803.7s581.8,221.9,803.7,0c73.1-73.1,122.1-161.2,147.1-254.4
	C1518.9,1500.7,1451.4,1468.8,1427.5,1535.9z"/>
<g id="Z">
	<path id="Z_拷贝" class="st2" d="M1042,1190l-313.2,464.2c0,0,329.8-74.5,576.9-162.7c111.8-39.9,222.3-116.3,222.3-116.3
		s-41.7,25.8-197.1,77.7C1124.7,1521.8,954,1560,954,1560l302.9-455.7c0,0-242.6,47.9-386.2,100c-113.3,41.1-249.5,154.8-249,155.1
		c0,0,123.9-69.4,245.7-117.6C989.1,1193.8,1042,1190,1042,1190z"/>
</g>
<g id="_" class="st0">
	<path id="_2" class="st1" d="M1622.7,1302l-7.9,11.3c-0.4,18.4-2.7,33,1.6,49.8c-51,40.7-163.5,101.3-163.5,101.3
		s131.8-26.8,178-49.7c5.3,24.4,17.6,49.4,30.8,68.7c10,6.8,20.7,6.5,32.1-0.9l8.1-16.5c-7.5-21.3-14.2-42.9-19.8-64.9l47.8-23.5
		l8.9-13.3l0.6-15.6l-7.9-12.6l-12.3-6c-17.6,6.1-34.8,13.2-51.5,21.3c-9.8-10.3-16.4-23.9-19.8-41l-11.7-9.6L1622.7,1302z"/>
	<path id="_拷贝" class="st1" d="M1884.4,1233.3l-10.2,8.7c-4.5,17.2-6.7,34.9-6.4,52.7c-20.6,5.4-35.9,7.7-54.2,16.1
		c-12.6,5.8-18.8,27.5-18.8,27.5c14.6,25.8,41.6,7.4,74,10.3c-0.7,24.3,3.3,48.5,11.7,71.4c8,9.4,18.4,12.1,31.2,8.2l11.6-13.7
		c-2.4-22.8-3.8-45.6-4.2-68.5l51.6-9.3l11.6-10.4l4.2-14.9l-4.7-14.5l-10.5-9.3c-18.3,0.9-36.5,3-54.6,6.1
		c-7.1-12.7-10.4-27.8-9.7-45.3l-9.1-12.6L1884.4,1233.3z"/>
</g>
</svg>
