<?xml version="1.0" encoding="utf-8"?>
<!-- Generator: Adobe Illustrator 22.0.1, SVG Export Plug-In . SVG Version: 6.00 Build 0)  -->
<svg version="1.1" id="图层_1" xmlns="http://www.w3.org/2000/svg" xmlns:xlink="http://www.w3.org/1999/xlink" x="0px" y="0px"
	 viewBox="0 0 2000 900" style="enable-background:new 0 0 2000 900;" xml:space="preserve">
<style type="text/css">
	.st0{fill:none;stroke:#D8194B;stroke-width:2;stroke-miterlimit:10;}
	.st1{fill:#D318C6;}
	.st2{font-family:'TimesNewRomanPS-ItalicMT';}
	.st3{font-size:32px;}
	.st4{fill:none;stroke:#D318C6;stroke-width:4;stroke-miterlimit:10;}
	.st5{fill:none;stroke:#FF9E1D;stroke-width:4;stroke-miterlimit:10;}
	.st6{fill:#FF9E1D;}
	.st7{fill:none;stroke:#000000;stroke-width:4;stroke-miterlimit:10;}
	.st8{font-family:'TimesNewRomanPSMT';}
	.st9{fill:#9927C9;}
	.st10{fill:none;stroke:#F7931E;stroke-width:4;stroke-miterlimit:10;}
	.st11{fill:#F7931E;}
	.st12{fill:none;stroke:#631AD6;stroke-width:4;stroke-miterlimit:10;}
	.st13{fill:#631AD6;}
	.st14{fill:#2B96CC;}
	.st15{fill:#2929CC;}
	.st16{fill:none;stroke:#2B96CC;stroke-width:4;stroke-miterlimit:10;}
</style>
<ellipse class="st0" cx="335.1" cy="407.4" rx="304.8" ry="120.7"/>
<text transform="matrix(1 0 0 1 395.2173 555.0713)" class="st1 st2 st3">X</text>
<text transform="matrix(1 0 0 1 636.9873 369.1455)" class="st1 st2 st3">Y</text>
<g>
	<g>
		<line class="st4" x1="335.4" y1="407.7" x2="395.8" y2="512.6"/>
		<g>
			<polygon class="st1" points="384.8,511.2 394.4,510 400.2,502.3 403,525 			"/>
		</g>
	</g>
</g>
<g>
	<g>
		<line class="st4" x1="335.4" y1="407.7" x2="611.8" y2="372.8"/>
		<g>
			<polygon class="st1" points="606.2,382.5 608.8,373.2 604,364.8 626,371 			"/>
		</g>
	</g>
</g>
<g>
	<g>
		<path class="st5" d="M269,459c25.1,9.5,54.8,11.6,85.7,10.8"/>
		<g>
			<polygon class="st6" points="348.2,478.9 351.7,469.9 347.7,461.1 369,469.3 			"/>
		</g>
	</g>
</g>
<text transform="matrix(1 0 0 1 286 497)" class="st6 st2 st3">α</text>
<g>
	<g>
		<line class="st7" x1="335.3" y1="407.6" x2="199.6" y2="504.9"/>
		<g>
			<polygon points="199.9,493.8 202,503.2 210.3,508.2 188,513.3 			"/>
		</g>
	</g>
</g>
<g>
	<g>
		<line class="st7" x1="335.3" y1="407.6" x2="604.4" y2="449.7"/>
		<g>
			<polygon points="596.3,457.4 601.5,449.2 599.1,439.8 618.5,451.9 			"/>
		</g>
	</g>
</g>
<g>
	<g>
		<line class="st7" x1="335.3" y1="407.6" x2="335.3" y2="117.5"/>
		<g>
			<polygon points="344.2,124.3 335.3,120.5 326.5,124.3 335.3,103.2 			"/>
		</g>
	</g>
</g>
<text transform="matrix(1 0 0 1 304.501 411.7393)" class="st2 st3">O</text>
<text transform="matrix(1 0 0 1 172.0376 536.0303)" class="st2 st3">x</text>
<text transform="matrix(1 0 0 1 628.2275 463.9482)" class="st2 st3">y</text>
<text transform="matrix(1 0 0 1 337.3652 98.8496)" class="st2 st3">z</text>
<text transform="matrix(1 0 0 1 349.8652 98.8496)" class="st8 st3">(</text>
<text transform="matrix(1 0 0 1 360.4652 98.8496)" class="st2 st3">Z</text>
<text transform="matrix(1 0 0 1 378.2652 98.8496)" class="st8 st3">)</text>
<ellipse class="st0" cx="1017.1" cy="407.4" rx="292.9" ry="304.4"/>
<text transform="matrix(1 0 0 1 1077.2173 555.0713)" class="st1 st2 st3">X</text>
<text transform="matrix(1 0 0 1 1318.9873 369.1455)" class="st1 st2 st3">Y</text>
<text transform="matrix(1 0 0 1 1110.9873 103.1455)" class="st9 st2 st3">Y’</text>
<text transform="matrix(1 0 0 1 710.9873 305.1455)" class="st9 st2 st3">Z’</text>
<g>
	<g>
		<line class="st4" x1="1017.4" y1="407.7" x2="1077.8" y2="512.6"/>
		<g>
			<polygon class="st1" points="1066.8,511.2 1076.4,510 1082.2,502.3 1085,525 			"/>
		</g>
	</g>
</g>
<g>
	<g>
		<line class="st4" x1="1017.4" y1="407.7" x2="1293.8" y2="372.8"/>
		<g>
			<polygon class="st1" points="1288.2,382.5 1290.8,373.2 1286,364.8 1308,371 			"/>
		</g>
	</g>
</g>
<g>
	<g>
		<path class="st10" d="M1181,387c-7.1-43.8-45-91-104.4-113.4"/>
		<g>
			<polygon class="st11" points="1085.8,267.6 1079.3,274.7 1080,284.3 1063,269 			"/>
		</g>
	</g>
</g>
<text transform="matrix(1 0 0 1 1163 313)" class="st11 st2 st3">β</text>
<g>
	<g>
		<line class="st7" x1="1017.3" y1="407.6" x2="881.6" y2="504.9"/>
		<g>
			<polygon points="881.9,493.8 884,503.2 892.3,508.2 870,513.3 			"/>
		</g>
	</g>
</g>
<g>
	<g>
		<line class="st7" x1="1017.3" y1="407.6" x2="1286.4" y2="449.7"/>
		<g>
			<polygon points="1278.3,457.4 1283.5,449.2 1281.1,439.8 1300.5,451.9 			"/>
		</g>
	</g>
</g>
<g>
	<g>
		<line class="st7" x1="1017.3" y1="407.6" x2="1017.3" y2="117.5"/>
		<g>
			<polygon points="1026.2,124.3 1017.3,120.5 1008.5,124.3 1017.3,103.2 			"/>
		</g>
	</g>
</g>
<text transform="matrix(1 0 0 1 986.501 411.7393)" class="st2 st3">O</text>
<text transform="matrix(1 0 0 1 854.0376 536.0303)" class="st2 st3">x</text>
<text transform="matrix(1 0 0 1 1310.2275 463.9482)" class="st2 st3">y</text>
<text transform="matrix(1 0 0 1 1019.3652 98.8496)" class="st2 st3">z</text>
<g>
	<g>
		<line class="st12" x1="1017" y1="407" x2="1114.2" y2="135.5"/>
		<g>
			<polygon class="st13" points="1120.3,144.8 1113.2,138.3 1103.5,138.8 1119,122 			"/>
		</g>
	</g>
</g>
<g>
	<g>
		<line class="st12" x1="1017" y1="408" x2="753.5" y2="313.8"/>
		<g>
			<polygon class="st13" points="762.8,307.7 756.3,314.8 756.8,324.5 740,309 			"/>
		</g>
	</g>
</g>
<ellipse transform="matrix(0.3679 -0.9299 0.9299 0.3679 673.133 1804.8921)" class="st0" cx="1664.1" cy="407.3" rx="289.6" ry="111.2"/>
<text transform="matrix(1 0 0 1 1744.2173 546.0713)" class="st13 st2 st3">X</text>
<text transform="matrix(1 0 0 1 1765.2173 464.0713)" class="st14 st2 st3">X’</text>
<text transform="matrix(1 0 0 1 1722.2173 128.0713)" class="st14 st2 st3">Y’</text>
<text transform="matrix(1 0 0 1 1788.9873 146.1455)" class="st9 st2 st3">Y</text>
<text transform="matrix(1 0 0 1 1370.9873 313.1455)" class="st9 st2 st3">Z</text>
<g>
	<g>
		<line class="st12" x1="1664.4" y1="407.7" x2="1724.8" y2="512.6"/>
		<g>
			<polygon class="st13" points="1713.8,511.2 1723.4,510 1729.2,502.3 1732,525 			"/>
		</g>
	</g>
</g>
<g>
	<g>
		<path class="st10" d="M1701,471c7.5-4.3,16.8-12.1,24.1-21.1"/>
		<g>
			<polygon class="st11" points="1728.4,460.4 1723.2,452.2 1713.7,450.3 1733,438 			"/>
		</g>
	</g>
</g>
<text transform="matrix(1 0 0 1 1727 482)" class="st15 st2 st3">γ</text>
<g>
	<g>
		<line class="st7" x1="1664.3" y1="407.6" x2="1528.6" y2="504.9"/>
		<g>
			<polygon points="1528.9,493.8 1531,503.2 1539.3,508.2 1517,513.3 			"/>
		</g>
	</g>
</g>
<g>
	<g>
		<line class="st7" x1="1664.3" y1="407.6" x2="1933.4" y2="449.7"/>
		<g>
			<polygon points="1925.3,457.4 1930.5,449.2 1928.1,439.8 1947.5,451.9 			"/>
		</g>
	</g>
</g>
<g>
	<g>
		<line class="st7" x1="1664.3" y1="407.6" x2="1664.3" y2="117.5"/>
		<g>
			<polygon points="1673.2,124.3 1664.3,120.5 1655.5,124.3 1664.3,103.2 			"/>
		</g>
	</g>
</g>
<text transform="matrix(1 0 0 1 1633.501 411.7393)" class="st2 st3">O</text>
<text transform="matrix(1 0 0 1 1501.0376 536.0303)" class="st2 st3">x</text>
<text transform="matrix(1 0 0 1 1957.2275 463.9482)" class="st2 st3">y</text>
<text transform="matrix(1 0 0 1 1666.3652 98.8496)" class="st2 st3">z</text>
<g>
	<g>
		<line class="st12" x1="1664" y1="407" x2="1774.3" y2="155.1"/>
		<g>
			<polygon class="st13" points="1779.7,164.9 1773.1,157.8 1763.4,157.7 1780,142 			"/>
		</g>
	</g>
</g>
<g>
	<g>
		<line class="st12" x1="1664" y1="408" x2="1405.5" y2="317.7"/>
		<g>
			<polygon class="st13" points="1414.8,311.6 1408.3,318.7 1409,328.3 1392,313 			"/>
		</g>
	</g>
</g>
<g>
	<g>
		<line class="st16" x1="1666" y1="407" x2="1752" y2="447"/>
		<g>
			<polygon class="st14" points="1742.1,452.2 1749.3,445.7 1749.6,436.1 1765,453 			"/>
		</g>
	</g>
</g>
<g>
	<g>
		<line class="st16" x1="1666" y1="407" x2="1727.6" y2="152.9"/>
		<g>
			<polygon class="st14" points="1734.7,161.6 1726.9,155.8 1717.4,157.4 1731,139 			"/>
		</g>
	</g>
</g>
<text transform="matrix(1 0 0 1 314.6821 830.0898)" class="st8 st3">(1)</text>
<text transform="matrix(1 0 0 1 1002.6821 830.0898)" class="st8 st3">(2)</text>
<text transform="matrix(1 0 0 1 1654.6821 830.0898)" class="st8 st3">(3)</text>
<g>
	<g>
		<line class="st7" x1="495" y1="820" x2="864.7" y2="820"/>
		<g>
			<polygon points="857.9,828.9 861.7,820 857.9,811.1 879,820 			"/>
		</g>
	</g>
</g>
<g>
	<g>
		<line class="st7" x1="1176" y1="820" x2="1545.7" y2="820"/>
		<g>
			<polygon points="1538.9,828.9 1542.7,820 1538.9,811.1 1560,820 			"/>
		</g>
	</g>
</g>
</svg>
